<svg id="Слой_1" data-name="Слой 1" xmlns="http://www.w3.org/2000/svg" viewBox="0 0 1366 763.91"><defs><style>.cls-1{fill:#ffffff;}.cls-2{fill:#ffffff;}.cls-3{fill:#ffffff;}</style></defs><title>logo3</title><path class="cls-1" d="M186.08,416.09v73.36H134.2V277.54h84q38.22,0,58.25,18.87t20,50.86q0,19.92-8.95,35.47T261,407.19q-17.61,8.91-42.78,8.9Zm53.56-66.95q0-26.77-29-26.77H186.08v53H210.6Q239.64,375.34,239.64,349.14Z"/><path class="cls-1" d="M467.56,291.13a99,99,0,0,1,37.56,37.71q13.74,24.11,13.74,54.51T505,438a99.86,99.86,0,0,1-37.71,37.86q-23.82,13.58-52.75,13.59t-52.76-13.59A99.77,99.77,0,0,1,324.06,438q-13.89-24.25-13.89-54.65t13.89-54.51a100,100,0,0,1,37.7-37.71q23.82-13.59,52.76-13.59Q443.74,277.54,467.56,291.13ZM375.5,339.94Q361,355.89,361,383.35q0,27.18,14.47,43.26t39,16.07q24.25,0,38.87-16.07T468,383.35q0-27.18-14.46-43.26t-39-16.07Q390,324,375.5,339.94Z"/><path class="cls-2" d="M963.85,438.34A93.47,93.47,0,0,1,925.49,476q-25,13.49-58.9,13.49h-80V277.54h80q34.17,0,59,13.19a92,92,0,0,1,38.21,37.17q13.33,24,13.34,55.15T963.85,438.34ZM907,428.58q16.8-16,16.8-45.08T907,338.41q-16.78-16.05-47-16H835.47V444.62H860Q890.23,444.62,907,428.58Z"/><path class="cls-2" d="M1160.05,398.93a50.9,50.9,0,0,1,11.24,32.67q0,27.28-18.13,42.56t-52,15.29h-98.61V277.54h96.22q32.37,0,50,14.09t17.68,40.16q0,19.18-10.19,31.92a46.9,46.9,0,0,1-26.67,16.64Q1148.8,384.83,1160.05,398.93Zm-104.53-35.81h33q26.25,0,26.25-22.41T1088,318.29h-32.44Zm66.74,61.59q0-11.68-7.69-18.3t-21.83-6.62h-37.22V448.7H1093Q1122.26,448.7,1122.26,424.71Z"/><polygon class="cls-2" points="1105.24 251 1082.96 251 1106.01 222.33 1082.96 193.65 1105.24 193.65 1128.28 222.33 1105.24 251"/><polygon class="cls-2" points="1062.23 251 1039.95 251 1062.99 222.33 1039.95 193.65 1062.23 193.65 1085.27 222.33 1062.23 251"/><polygon class="cls-2" points="1148.25 251 1125.97 251 1149.02 222.33 1125.97 193.65 1148.25 193.65 1171.29 222.33 1148.25 251"/><polygon class="cls-1" points="200.25 514.45 222.53 514.45 199.49 543.12 222.53 571.79 200.25 571.79 177.21 543.12 200.25 514.45"/><polygon class="cls-1" points="243.26 514.45 265.54 514.45 242.5 543.12 265.54 571.79 243.26 571.79 220.22 543.12 243.26 514.45"/><polygon class="cls-1" points="157.24 514.45 179.52 514.45 156.47 543.12 179.52 571.79 157.24 571.79 134.2 543.12 157.24 514.45"/><path class="cls-3" d="M1019.21,193.65h-17.73l-353.71-1.53h-.36A108.44,108.44,0,0,0,539,300.54v3.33A108.55,108.55,0,0,0,647.42,412.29H651a51.08,51.08,0,1,1,0,102.16H286.43l-23,28.67,23,28.67H651A108.42,108.42,0,1,0,651,355h-3.58a51.14,51.14,0,0,1-51.08-51.08v-3.33a51.08,51.08,0,0,1,51-51.07h.17L996,251l0,0h23.22l23-28.67Z"/></svg>